<?xml version="1.0" encoding="UTF-8"?>
<svg version="1.1" xmlns="http://www.w3.org/2000/svg" width="1024" height="1024">
<path d="M0 0 C337.92 0 675.84 0 1024 0 C1024 337.92 1024 675.84 1024 1024 C686.08 1024 348.16 1024 0 1024 C0 686.08 0 348.16 0 0 Z " fill="#F9F7F5" transform="translate(0,0)"/>
<path d="M0 0 C1.18980469 0.52464844 2.37960937 1.04929687 3.60546875 1.58984375 C31.05596802 14.53819246 51.10275244 36.88431548 61.68359375 65.1796875 C66.15356176 77.76061564 68.20356061 89.96503878 68.24023438 103.30053711 C68.24983159 105.40064803 68.28085225 107.49973197 68.3125 109.59960938 C68.40985158 121.92174521 66.63224366 133.74024981 62.375 145.375 C62.12266602 146.07214111 61.87033203 146.76928223 61.61035156 147.48754883 C54.3508463 166.76062895 42.41963402 182.6306819 29 198 C28.36191406 198.73863281 27.72382813 199.47726562 27.06640625 200.23828125 C23.96826378 203.8086579 20.80476601 207.31475739 17.625 210.8125 C13.80085522 215.0544085 10.15110545 219.40551097 6.5625 223.84765625 C4.66979087 226.18859881 2.74749825 228.50249212 0.8125 230.80859375 C-10.80151179 244.68779054 -21.40370827 259.22646311 -31.78662109 274.04077148 C-36.06087587 280.1280602 -40.4881959 286.0868022 -45 292 C-50.9907038 291.87364521 -50.9907038 291.87364521 -53.49316406 289.70751953 C-54.9746473 287.88362302 -56.30850942 286.00895502 -57.625 284.0625 C-58.1300708 283.35319336 -58.6351416 282.64388672 -59.15551758 281.91308594 C-60.23170184 280.39932499 -61.29927969 278.87941457 -62.35888672 277.35400391 C-64.54131756 274.22353705 -66.78123728 271.13641157 -69.02172852 268.04736328 C-70.67603046 265.76581831 -72.32282384 263.47899825 -73.96875 261.19140625 C-77.90386134 255.73646855 -81.9302285 250.35534914 -86 245 C-87.16402344 243.45119141 -87.16402344 243.45119141 -88.3515625 241.87109375 C-94.10700136 234.25478727 -100.19583135 226.98152495 -106.45898438 219.77929688 C-108.00797108 217.99079638 -109.54492534 216.19267035 -111.078125 214.390625 C-115.67672423 208.9883728 -120.29933397 203.64017119 -125.125 198.4375 C-152.50256833 168.47548922 -166.64675817 134.6280212 -165.21777344 93.76318359 C-163.74271077 68.27370379 -150.59396726 44.78449097 -134 26 C-133.10087891 24.97519531 -133.10087891 24.97519531 -132.18359375 23.9296875 C-98.99614924 -11.47981053 -43.33110653 -19.19031429 0 0 Z " fill="#257652" transform="translate(268,338)"/>
<path d="M0 0 C3.49279988 2.85245323 6.76482429 5.86097462 10 9 C10.69609375 9.62261719 11.3921875 10.24523437 12.109375 10.88671875 C26.51049672 24.1993836 34.93952285 45.66519854 36.1262207 65.06323242 C37.1714431 94.67786692 27.77754974 119.2817409 9 142 C8.57444824 142.52706543 8.14889648 143.05413086 7.71044922 143.59716797 C-1.67556044 155.20442814 -12.35491162 165.56023231 -23 176 C-23.51876709 175.60965576 -24.03753418 175.21931152 -24.57202148 174.81713867 C-35.6234592 166.28036232 -35.6234592 166.28036232 -48 160 C-49.80775786 158.19224214 -49.16555685 155.73110169 -49.19067383 153.32446289 C-49.17416967 141.2370741 -48.3569574 128.94374262 -39.25 119.8125 C-34.86884343 116.38460606 -29.54819049 114.67990919 -24.41552734 112.67504883 C-18.26750717 110.23232662 -13.10151086 107.25286633 -8 103 C-7.36964844 102.50371094 -6.73929688 102.00742187 -6.08984375 101.49609375 C4.06235848 92.59339333 8.62470955 77.56527808 9.55322266 64.53466797 C9.74522018 61.35728351 9.88425191 58.18107691 10 55 C-4.94538962 54.09269136 -18.94629506 57.4354135 -31.01953125 66.51953125 C-41.03334047 75.48614473 -43.38983993 88.61278367 -45.6875 101.1875 C-46.10658455 103.45238602 -46.53088943 105.71566616 -46.97187805 107.97639465 C-47.24331393 109.36947663 -47.50213346 110.76509107 -47.74674988 112.16313171 C-48.11206055 114.04760742 -48.11206055 114.04760742 -49 117 C-49.99 117.33 -50.98 117.66 -52 118 C-52.22026855 117.46334717 -52.44053711 116.92669434 -52.66748047 116.3737793 C-60.40489534 97.63889223 -68.95884331 80.18123328 -80.79736328 63.69042969 C-82.47860919 61.32726552 -84.08669797 58.91815272 -85.6875 56.5 C-86.14511719 55.8090625 -86.60273438 55.118125 -87.07421875 54.40625 C-87.37972656 53.9421875 -87.68523437 53.478125 -88 53 C-74.81176495 57.49598922 -67.09635518 73.182287 -60.4375 84.625 C-60.09066162 85.21692139 -59.74382324 85.80884277 -59.38647461 86.41870117 C-57.82349083 89.17905147 -57 90.77105536 -57 94 C-56.34 94 -55.68 94 -55 94 C-54.93941406 93.33613281 -54.87882812 92.67226563 -54.81640625 91.98828125 C-54.69072266 90.66376953 -54.69072266 90.66376953 -54.5625 89.3125 C-54.44068359 88.00732422 -54.44068359 88.00732422 -54.31640625 86.67578125 C-54 84 -54 84 -53.48046875 81.55078125 C-51.10180503 68.92259091 -53.87378535 56.57249878 -61 46 C-68.67844079 35.24616277 -79.74610274 30.10071365 -92 26 C-92.67289063 25.76410156 -93.34578125 25.52820313 -94.0390625 25.28515625 C-97.32381539 24.29394227 -100.628654 23.8971634 -104.04296875 23.6640625 C-104.77346436 23.61411133 -105.50395996 23.56416016 -106.2565918 23.51269531 C-109.50337608 23.31341505 -112.7505587 23.14985288 -116 23 C-116.4547075 43.41131461 -115.6381669 63.50940604 -102 80 C-101.50113281 80.62261719 -101.00226563 81.24523437 -100.48828125 81.88671875 C-94.01310667 89.14478598 -84.3671317 93.62802487 -75.5 97.25 C-68.25347201 100.75407768 -66.26521269 108.50560305 -63.6875 115.625 C-62.00073256 123.90549473 -61.81803263 132.26130653 -61.8125 140.6875 C-61.80025391 141.68072266 -61.78800781 142.67394531 -61.77539062 143.69726562 C-61.76453058 149.14538964 -61.80235989 153.96456636 -64 159 C-66.26171875 160.765625 -66.26171875 160.765625 -69 162 C-69.93457031 162.44859375 -70.86914062 162.8971875 -71.83203125 163.359375 C-72.81558594 163.81828125 -73.79914063 164.2771875 -74.8125 164.75 C-79.75446975 167.16323738 -83.46440183 169.83494136 -87.28125 173.77734375 C-89 175 -89 175 -90.76098633 174.90014648 C-94.01071606 173.59366371 -96.13115944 171.27672759 -98.54296875 168.8203125 C-99.07086502 168.29291473 -99.59876129 167.76551697 -100.14265442 167.22213745 C-101.26155261 166.10089918 -102.37675988 164.97596733 -103.48852539 163.84765625 C-105.15570259 162.15724063 -106.83540865 160.48016892 -108.51757812 158.8046875 C-115.12202998 152.18308775 -121.25046822 145.3878594 -127 138 C-127.49540283 137.36932617 -127.99080566 136.73865234 -128.5012207 136.08886719 C-145.17343126 114.49329801 -154.0005659 89.06142757 -150.71582031 61.62646484 C-146.75333159 36.58204883 -133.04015082 14.37436253 -112.75 -0.8125 C-79.44900377 -24.76361744 -32.87929683 -24.33712657 0 0 Z " fill="#F7F5F4" transform="translate(277,370)"/>
<path d="M0 0 C3.12492251 -0.05791844 6.24970766 -0.09356746 9.375 -0.125 C10.26445312 -0.14175781 11.15390625 -0.15851563 12.0703125 -0.17578125 C12.92109375 -0.18222656 13.771875 -0.18867188 14.6484375 -0.1953125 C15.82672119 -0.21102295 15.82672119 -0.21102295 17.02880859 -0.22705078 C19 0 19 0 21 2 C21.64208309 4.16570456 22.19137893 6.35919376 22.69580078 8.56103516 C22.85214996 9.23432358 23.00849915 9.907612 23.16958618 10.6013031 C23.68508801 12.82902329 24.19021872 15.05896153 24.6953125 17.2890625 C25.05054264 18.83334737 25.40641645 20.37748432 25.76290894 21.92147827 C26.69982436 25.98723092 27.62796653 30.05493801 28.55432129 34.12310791 C29.50099527 38.27338737 30.45591764 42.42176706 31.41015625 46.5703125 C33.28153449 54.7117008 35.14365246 62.85517142 37 71 C39.90818175 61.83021496 42.72841036 52.65889165 45.2265625 43.3671875 C45.78887387 41.30463607 46.3513792 39.2421375 46.9140625 37.1796875 C47.77659142 34.00522537 48.63707904 30.8302397 49.49414062 27.65429688 C50.33691395 24.53622581 51.18746806 21.42035905 52.0390625 18.3046875 C52.4188475 16.88432693 52.4188475 16.88432693 52.80630493 15.43527222 C54.12262245 10.63812398 55.57295912 6.34848579 58 2 C60.6058889 1.86505754 63.20482111 1.76597701 65.8125 1.6875 C66.55048828 1.64560547 67.28847656 1.60371094 68.04882812 1.56054688 C70.20703125 1.51171875 70.20703125 1.51171875 74 2 C76.38655568 5.21709936 77.60239714 8.44160605 78.66992188 12.27416992 C79.10552429 13.81683784 79.10552429 13.81683784 79.54992676 15.39067078 C79.85313843 16.49280411 80.1563501 17.59493744 80.46875 18.73046875 C80.79033081 19.87606766 81.11191162 21.02166656 81.4432373 22.20198059 C82.4690935 25.86192267 83.48481047 29.52458644 84.5 33.1875 C85.51741486 36.83190993 86.53688401 40.47573995 87.5567627 44.11946106 C88.18978907 46.38396958 88.82099684 48.64898756 89.45007324 50.91459656 C91.22587708 57.29990951 93.06642889 63.66061902 95 70 C97.33692058 64.18836515 98.89672222 58.54501389 100.12109375 52.41015625 C100.30712662 51.50736435 100.49315948 50.60457245 100.68482971 49.67442322 C101.27515016 46.80499067 101.85683006 43.93389952 102.4375 41.0625 C106.88742868 19.22471369 106.88742868 19.22471369 109.16015625 9.24609375 C109.31657089 8.53703384 109.47298553 7.82797394 109.63414001 7.09742737 C110.76610384 2.23389616 110.76610384 2.23389616 113 0 C114.87939453 -0.22705078 114.87939453 -0.22705078 117.1328125 -0.1953125 C118.34130859 -0.18564453 118.34130859 -0.18564453 119.57421875 -0.17578125 C120.83685547 -0.15064453 120.83685547 -0.15064453 122.125 -0.125 C123.39923828 -0.11146484 123.39923828 -0.11146484 124.69921875 -0.09765625 C126.79959884 -0.07405647 128.89983444 -0.03818483 131 0 C132.01347175 3.86021562 131.91119457 6.42055428 130.87939453 10.26049805 C130.60775482 11.29266953 130.33611511 12.324841 130.0562439 13.38829041 C129.75151154 14.50152176 129.44677917 15.61475311 129.1328125 16.76171875 C128.82252106 17.92921158 128.51222961 19.09670441 128.1925354 20.29957581 C127.35350138 23.44857888 126.50507379 26.59485398 125.65196228 29.74006653 C124.77418131 32.98398 123.90750124 36.23085398 123.04003906 39.47753906 C122.00277252 43.35699054 120.96429385 47.23609965 119.92004395 51.11367798 C117.94427285 58.45344859 115.9984564 65.79961875 114.1015625 73.16015625 C113.69133151 74.74457032 113.28101671 76.32896269 112.87060547 77.91333008 C112.31572884 80.05622939 111.76283827 82.19950973 111.21734619 84.34481812 C110.73017646 86.25775658 110.23257357 88.16802916 109.734375 90.078125 C109.46850586 91.11356445 109.20263672 92.14900391 108.92871094 93.21582031 C107.842456 96.47230069 106.45935425 99.54064575 104 102 C101.19305317 102.18023553 98.43413173 102.27807437 95.625 102.3125 C94.45324219 102.35600586 94.45324219 102.35600586 93.2578125 102.40039062 C90.9765625 102.42578125 90.9765625 102.42578125 87 102 C84.12923962 99.08475586 83.19579425 95.95645062 82.11474609 92.06982422 C81.7778476 90.87533661 81.4409491 89.680849 81.09384155 88.45016479 C80.73691608 87.15170648 80.38011774 85.8532132 80.0234375 84.5546875 C79.64979162 83.2197525 79.27531837 81.88504882 78.90005493 80.55056763 C77.91642189 77.0451777 76.94285638 73.53707362 75.97174072 70.02819824 C74.41311267 64.4042563 72.83792184 58.78492126 71.26515579 53.16492081 C70.71696971 51.20129512 70.17227034 49.23672978 69.62826538 47.27194214 C69.2976712 46.08375885 68.96707703 44.89557556 68.62646484 43.67138672 C68.19036392 42.09730545 68.19036392 42.09730545 67.74545288 40.49142456 C67.08700546 38.03062957 67.08700546 38.03062957 66 36 C65.8209613 36.62259201 65.64192261 37.24518402 65.4574585 37.88664246 C63.57675525 44.42573791 61.69436368 50.96434572 59.81103516 57.50268555 C59.11041548 59.93583162 58.4102119 62.36909755 57.71044922 64.80249023 C56.69871321 68.32047384 55.6854313 71.83800921 54.671875 75.35546875 C54.36441345 76.42580856 54.0569519 77.49614838 53.74017334 78.59892273 C52.13838041 84.15215438 50.5056646 89.69545723 48.83300781 95.2277832 C48.50649231 96.308647 48.17997681 97.3895108 47.84356689 98.50312805 C47 101 47 101 46 102 C43.02539596 102.2069804 40.10268416 102.32453078 37.125 102.375 C35.88169922 102.43107422 35.88169922 102.43107422 34.61328125 102.48828125 C33.81535156 102.49988281 33.01742187 102.51148438 32.1953125 102.5234375 C31.09727295 102.5531665 31.09727295 102.5531665 29.97705078 102.58349609 C28 102 28 102 26.479599 99.79705811 C25.03757137 97.07102554 24.15354292 94.63337696 23.34936523 91.66357422 C23.06121948 90.61457947 22.77307373 89.56558472 22.47619629 88.48480225 C22.02198303 86.78689545 22.02198303 86.78689545 21.55859375 85.0546875 C21.23427368 83.86764221 20.90995361 82.68059692 20.57580566 81.45758057 C19.70281215 78.25839205 18.83623647 75.05760107 17.97263718 71.85587311 C16.54570618 66.57392043 15.10305535 61.29621894 13.6626606 56.01792526 C13.30391391 54.70276889 12.94548929 53.38752463 12.58738518 52.07219315 C10.35321326 43.86685826 8.0731673 35.67822681 5.6875 27.515625 C5.32544212 26.2734874 5.32544212 26.2734874 4.95606995 25.0062561 C3.86915502 21.2851132 2.7704828 17.56795662 1.65600586 13.85498047 C1.27946074 12.57268637 0.90321797 11.29030342 0.52734375 10.0078125 C0.20499756 8.93160645 -0.11734863 7.85540039 -0.44946289 6.74658203 C-0.99547656 4.02256706 -0.94429784 2.57620248 0 0 Z " fill="#247451" transform="translate(376,385)"/>
<path d="M0 0 C1.39038986 -0.00855011 1.39038986 -0.00855011 2.80886841 -0.01727295 C4.78109592 -0.02674616 6.75333942 -0.03326609 8.72558594 -0.03710938 C11.71057995 -0.04672288 14.69485804 -0.07768471 17.6796875 -0.109375 C31.29392678 -0.18624106 43.82341034 0.2355187 54.8828125 9.203125 C57.28105552 12.01845376 59.19150581 14.91764748 60.8828125 18.203125 C61.25664062 18.92886719 61.63046875 19.65460937 62.015625 20.40234375 C63.26102663 24.42465442 63.26596097 28.2635871 63.2578125 32.453125 C63.25620117 33.30414795 63.25458984 34.1551709 63.25292969 35.03198242 C63.13173753 41.21812909 62.30948543 45.94889318 58.8828125 51.203125 C58.3671875 52.234375 57.8515625 53.265625 57.3203125 54.328125 C50.97515498 61.81215695 42.35672852 65.44260698 32.8828125 67.203125 C28.64098392 67.52062615 24.4456478 67.49213331 20.1953125 67.390625 C19.10025391 67.37708984 18.00519531 67.36355469 16.87695312 67.34960938 C14.21169836 67.31469337 11.54753746 67.26566217 8.8828125 67.203125 C8.89066772 68.74021118 8.89066772 68.74021118 8.89868164 70.30834961 C8.91673219 74.09707776 8.9282447 77.88580209 8.93774414 81.67456055 C8.94278424 83.31681964 8.94961628 84.95907423 8.95825195 86.60131836 C8.97033176 88.95687979 8.97604389 91.31238209 8.98046875 93.66796875 C8.98563004 94.40651596 8.99079132 95.14506317 8.99610901 95.9059906 C8.996305 97.67210588 8.94475969 99.43809646 8.8828125 101.203125 C6.9972872 103.0886503 4.30512419 102.33559189 1.80078125 102.33984375 C0.60388672 102.33404297 0.60388672 102.33404297 -0.6171875 102.328125 C-1.41511719 102.33199219 -2.21304687 102.33585938 -3.03515625 102.33984375 C-8.99057983 102.32973267 -8.99057983 102.32973267 -10.1171875 101.203125 C-10.21785784 98.10341736 -10.2533305 95.02594829 -10.24658203 91.92578125 C-10.24833435 90.95188446 -10.25008667 89.97798767 -10.25189209 88.97457886 C-10.25631249 85.73824306 -10.25337195 82.5019614 -10.25 79.265625 C-10.25067299 77.02742502 -10.25164296 74.78922512 -10.25289917 72.55102539 C-10.2543764 67.85334581 -10.25222079 63.1556852 -10.24755859 58.45800781 C-10.2418613 52.42151886 -10.24514017 46.38507436 -10.25113106 40.34858704 C-10.254736 35.72480939 -10.25359839 31.10104236 -10.25100327 26.4772644 C-10.25033381 24.25080358 -10.25116306 22.0243418 -10.25348282 19.79788208 C-10.25600824 16.69205145 -10.2521703 13.5862939 -10.24658203 10.48046875 C-10.24860626 9.55056122 -10.25063049 8.62065369 -10.25271606 7.66256714 C-10.22313972 -1.16206251 -8.02861338 0.03787378 0 0 Z " fill="#237450" transform="translate(392.1171875,515.796875)"/>
<path d="M0 0 C7.84719863 5.77381037 14.3636935 14.84899745 16.12890625 24.56640625 C17.16875079 37.62388275 15.68650096 48.59972442 6.94140625 59.00390625 C-1.21900649 67.3544118 -9.95685514 71.5356936 -21.62109375 71.94140625 C-32.47016364 71.74582387 -41.13437868 68.23013344 -48.87109375 60.56640625 C-57.30730715 50.50531906 -60.91940651 39.689729 -59.87109375 26.56640625 C-57.83767828 15.46878284 -52.09056724 6.07733386 -42.87109375 -0.43359375 C-29.10798519 -8.8283005 -13.76839691 -8.25118598 0 0 Z " fill="#247450" transform="translate(938.87109375,417.43359375)"/>
<path d="M0 0 C6.50976543 5.30919394 11.29166085 12.99661085 12.6875 21.3125 C13.0494885 26.64177521 13.01739457 31.98343391 12.6875 37.3125 C11.06142364 38.93857636 9.23066935 38.47840931 6.98413086 38.51782227 C5.98316879 38.53776749 4.98220673 38.55771271 3.95091248 38.57826233 C2.8623848 38.59497482 1.77385712 38.61168732 0.65234375 38.62890625 C-0.45604355 38.64968735 -1.56443085 38.67046844 -2.70640564 38.69187927 C-6.26253808 38.75749623 -9.81874703 38.81631596 -13.375 38.875 C-15.77930493 38.91817368 -18.18360199 38.96178758 -20.58789062 39.00585938 C-26.49601185 39.11318992 -32.40420991 39.21493331 -38.3125 39.3125 C-38.03019531 40.57449219 -37.74789062 41.83648437 -37.45703125 43.13671875 C-37.29823486 43.84658936 -37.13943848 44.55645996 -36.97583008 45.2878418 C-35.35680607 50.22952973 -30.73306579 53.04505462 -26.3125 55.3125 C-17.65178942 56.67460389 -10.5681487 55.16922225 -3.3125 50.3125 C-2.6525 49.6525 -1.9925 48.9925 -1.3125 48.3125 C2.19519248 48.62477904 4.04373606 50.21010471 6.5 52.625 C7.12519531 53.21925781 7.75039063 53.81351562 8.39453125 54.42578125 C9.6875 56.3125 9.6875 56.3125 9.546875 58.38671875 C7.03451016 64.01669996 0.10137979 67.06620571 -5.3125 69.3125 C-15.41227587 72.85628101 -27.01310164 72.75835005 -36.8828125 68.5703125 C-46.50161883 63.59080183 -53.17946785 56.10767236 -56.6171875 45.765625 C-59.1597165 33.13868323 -58.55146675 20.01168617 -51.83984375 8.8671875 C-39.93938542 -8.18169606 -16.84605563 -11.4975931 0 0 Z " fill="#237450" transform="translate(657.3125,417.6875)"/>
<path d="M0 0 C9.33511497 6.3713047 13.4889674 15.8968268 15.7421875 26.71484375 C16.10322922 30.4200344 16.31994808 34.02658141 15.7421875 37.71484375 C13.7421875 39.71484375 13.7421875 39.71484375 11.60348511 39.95535278 C10.7196817 39.95091156 9.8358783 39.94647034 8.92529297 39.94189453 C7.92440643 39.94174347 6.9235199 39.94159241 5.89230347 39.94143677 C4.26725388 39.92595291 4.26725388 39.92595291 2.609375 39.91015625 C1.50240265 39.90732635 0.3954303 39.90449646 -0.74508667 39.90158081 C-4.29110387 39.89035894 -7.83687125 39.86525066 -11.3828125 39.83984375 C-13.78254844 39.82981655 -16.18228833 39.82069025 -18.58203125 39.8125 C-24.47404401 39.79041307 -30.36591041 39.75691582 -36.2578125 39.71484375 C-35.95528564 40.98859863 -35.65275879 42.26235352 -35.34106445 43.57470703 C-35.1708931 44.29119415 -35.00072174 45.00768127 -34.82539368 45.74588013 C-34.12755458 48.16671411 -33.13362129 49.72780398 -31.4453125 51.58984375 C-30.96449219 52.14414062 -30.48367188 52.6984375 -29.98828125 53.26953125 C-25.34763785 57.14546366 -20.20647116 57.18818769 -14.41015625 57.109375 C-8.63231975 56.38625048 -3.37915242 53.83618367 0.7421875 49.71484375 C4.24987998 50.02712279 6.09842356 51.61244846 8.5546875 54.02734375 C9.17988281 54.62160156 9.80507813 55.21585937 10.44921875 55.828125 C11.7421875 57.71484375 11.7421875 57.71484375 11.6015625 59.7890625 C8.64556174 66.41319149 -0.09860516 69.45116082 -6.3828125 71.96484375 C-17.61537264 74.13888765 -28.48626692 73.23461586 -38.4453125 67.46484375 C-47.06304754 61.59227431 -52.20249246 54.55888161 -54.875 44.359375 C-56.64266342 32.14806747 -55.78880875 19.98567455 -48.68359375 9.58984375 C-36.83600968 -5.99054078 -16.91267822 -9.62676667 0 0 Z " fill="#237450" transform="translate(790.2578125,416.28515625)"/>
<path d="M0 0 C2.28465546 2.05160532 3.58594844 3.72143086 5.0234375 6.41015625 C5.41917969 7.12816406 5.81492187 7.84617187 6.22265625 8.5859375 C9.30537431 15.54098211 9.63180905 21.68349737 9.6015625 29.2109375 C9.60347595 30.26169968 9.6053894 31.31246185 9.60736084 32.39506531 C9.60871656 34.60460654 9.60506315 36.8141559 9.59667969 39.02368164 C9.58591783 42.416358 9.5966234 45.80851129 9.609375 49.20117188 C9.60805435 51.35026159 9.60549391 53.49935098 9.6015625 55.6484375 C9.60561096 56.66609695 9.60965942 57.68375641 9.61383057 58.73225403 C9.60437408 60.13963081 9.60437408 60.13963081 9.59472656 61.57543945 C9.59313538 62.40259964 9.59154419 63.22975983 9.58990479 64.08198547 C9.3359375 66.09765625 9.3359375 66.09765625 7.3359375 68.09765625 C4.8014704 68.37665321 2.43515332 68.51367888 -0.1015625 68.53515625 C-0.78283203 68.56802734 -1.46410156 68.60089844 -2.16601562 68.63476562 C-4.16015625 68.65625 -4.16015625 68.65625 -7.6640625 68.09765625 C-9.63671875 65.5703125 -9.63671875 65.5703125 -10.6640625 63.09765625 C-12.2109375 64.27328125 -12.2109375 64.27328125 -13.7890625 65.47265625 C-20.68711096 70.71517308 -28.32471736 70.8629138 -36.6640625 70.09765625 C-44.38267759 68.40854104 -49.29904563 64.62609256 -53.6640625 58.09765625 C-56.27593278 52.76035611 -56.71996962 46.70645274 -55.046875 40.98828125 C-52.39518041 34.9339697 -47.84466282 30.0724997 -41.84741211 27.23950195 C-35.15258941 24.64067751 -28.70017255 24.7504068 -21.6015625 24.91015625 C-19.87389648 24.93045898 -19.87389648 24.93045898 -18.11132812 24.95117188 C-15.29507278 24.986229 -12.47982485 25.03536769 -9.6640625 25.09765625 C-9.93551346 23.49287436 -10.22073263 21.89041744 -10.51171875 20.2890625 C-10.66906494 19.39646729 -10.82641113 18.50387207 -10.98852539 17.58422852 C-11.95746696 14.01766909 -13.76047521 12.29305152 -16.6640625 10.09765625 C-22.39000212 8.18900971 -28.41449176 8.15723035 -33.9140625 10.78515625 C-36.52391252 12.24793509 -38.68866865 13.91842876 -40.9140625 15.91015625 C-43.6640625 18.09765625 -43.6640625 18.09765625 -45.8515625 18.28515625 C-49.22788543 16.07308261 -50.15389441 12.93724045 -51.19921875 9.16796875 C-51.52864143 6.78313416 -51.48548825 5.3730495 -50.6640625 3.09765625 C-37.55969209 -10.52220699 -14.76753417 -10.54514537 0 0 Z " fill="#257451" transform="translate(557.6640625,549.90234375)"/>
<path d="M0 0 C1.12535156 0.00580078 1.12535156 0.00580078 2.2734375 0.01171875 C3.02367187 0.00785156 3.77390625 0.00398438 4.546875 0 C10.14682697 0.01010822 10.14682697 0.01010822 11.2734375 1.13671875 C11.43347238 3.8009856 11.53286639 6.44232303 11.58984375 9.109375 C11.61062485 9.90701767 11.63140594 10.70466034 11.65281677 11.526474 C11.71839908 14.08396486 11.77723717 16.64156155 11.8359375 19.19921875 C11.87911449 20.92904757 11.92272851 22.65886554 11.96679688 24.38867188 C12.07408922 28.63791135 12.17533176 32.88725765 12.2734375 37.13671875 C12.80670654 36.65388428 13.33997559 36.1710498 13.8894043 35.67358398 C14.59750244 35.04137939 15.30560059 34.4091748 16.03515625 33.7578125 C16.73342529 33.13060303 17.43169434 32.50339355 18.15112305 31.85717773 C23.63316722 27.4131463 29.53868193 26.56260638 36.46875 26.79296875 C44.87971644 27.82383929 51.07139351 31.51065155 56.2734375 38.13671875 C61.37754446 46.23288841 61.56928916 55.39770959 61.50390625 64.69921875 C61.50344803 65.77171875 61.50298981 66.84421875 61.5025177 67.94921875 C61.49951431 70.1980908 61.49168596 72.44696112 61.47924805 74.69580078 C61.4608453 78.1540453 61.45873963 81.61202384 61.45898438 85.0703125 C61.45407401 87.25911692 61.4482478 89.44791952 61.44140625 91.63671875 C61.44029343 92.67513916 61.4391806 93.71355957 61.43803406 94.78344727 C61.43165421 95.73533936 61.42527435 96.68723145 61.41870117 97.66796875 C61.41488937 98.50908203 61.41107758 99.35019531 61.40715027 100.21679688 C61.2734375 102.13671875 61.2734375 102.13671875 60.2734375 103.13671875 C57.5961237 103.23653089 54.95039575 103.2755175 52.2734375 103.26171875 C51.14808594 103.26751953 51.14808594 103.26751953 50 103.2734375 C44.40004803 103.26332928 44.40004803 103.26332928 43.2734375 102.13671875 C43.16187854 100.79823461 43.11676671 99.45410265 43.09985352 98.11108398 C43.08636368 97.25606796 43.07287384 96.40105194 43.05897522 95.52012634 C43.04853683 94.58793777 43.03809845 93.65574921 43.02734375 92.6953125 C42.99437895 90.7298137 42.96116779 88.76431901 42.92773438 86.79882812 C42.88049437 83.69396072 42.83612688 80.58910675 42.79663086 77.48413086 C42.7566634 74.4918366 42.70515006 71.49990399 42.65234375 68.5078125 C42.6439296 67.58979355 42.63551544 66.6717746 42.62684631 65.72593689 C42.4751938 56.0890176 42.4751938 56.0890176 38.2734375 47.69921875 C34.54075193 44.78305815 31.58513192 44.73093315 26.9453125 44.8046875 C22.44414111 45.36404359 19.543045 47.05786692 16.2734375 50.13671875 C12.38312684 56.27549452 11.68397516 62.26993392 11.69921875 69.38671875 C11.67797188 70.79570435 11.67797188 70.79570435 11.65629578 72.2331543 C11.61471508 75.20112912 11.59920357 78.16849479 11.5859375 81.13671875 C11.55688947 84.13322686 11.52244152 87.12958192 11.48344421 90.12597656 C11.46092801 91.9833276 11.44512619 93.84077425 11.43659973 95.69824219 C11.38307525 102.027081 11.38307525 102.027081 10.2734375 103.13671875 C7.57688896 103.20991496 4.90652292 103.22914412 2.2109375 103.19921875 C1.45232422 103.19470703 0.69371094 103.19019531 -0.08789062 103.18554688 C-1.96748121 103.17372555 -3.84703149 103.15578953 -5.7265625 103.13671875 C-6.86268188 100.86447999 -6.85225095 99.62906464 -6.85354614 97.10655212 C-6.85636597 96.26383255 -6.85918579 95.42111298 -6.86209106 94.55285645 C-6.86006683 93.62654419 -6.8580426 92.70023193 -6.85595703 91.74584961 C-6.85770935 90.77180679 -6.85946167 89.79776398 -6.86126709 88.79420471 C-6.86568102 85.56330604 -6.86274944 82.33246176 -6.859375 79.1015625 C-6.86004812 76.86479176 -6.86101821 74.6280211 -6.86227417 72.39125061 C-6.86375048 67.69954737 -6.86159853 63.00786314 -6.85693359 58.31616211 C-6.85123307 52.28754891 -6.8545178 46.25898019 -6.86050606 40.23036861 C-6.86411067 35.61088218 -6.8629736 30.99140638 -6.86037827 26.37191963 C-6.85970889 24.14824989 -6.86053778 21.9245792 -6.86285782 19.70091057 C-6.86538307 16.5999786 -6.8615457 13.49911984 -6.85595703 10.39819336 C-6.85798126 9.46985687 -6.86000549 8.54152039 -6.86209106 7.58505249 C-6.83666694 0.01234055 -6.83666694 0.01234055 0 0 Z " fill="#23734F" transform="translate(524.7265625,383.86328125)"/>
<path d="M0 0 C6.74813643 4.87668969 10.96982683 11.23997105 12.49169922 19.41259766 C13.15818164 24.43907548 13.0726379 29.48123231 13.0625 34.54296875 C13.06345673 35.5961026 13.06441345 36.64923645 13.06539917 37.73428345 C13.06607698 39.948019 13.06425066 42.16175659 13.06005859 44.37548828 C13.05467249 47.779016 13.06003353 51.18241368 13.06640625 54.5859375 C13.06574603 56.73828154 13.06446603 58.8906255 13.0625 61.04296875 C13.06452423 62.06578949 13.06654846 63.08861023 13.06863403 64.14242554 C13.06390579 65.54991562 13.06390579 65.54991562 13.05908203 66.98583984 C13.05828644 67.81522064 13.05749084 68.64460144 13.05667114 69.49911499 C12.9296875 71.39453125 12.9296875 71.39453125 11.9296875 72.39453125 C9.2523737 72.49434339 6.60664575 72.53333 3.9296875 72.51953125 C2.80433594 72.52533203 2.80433594 72.52533203 1.65625 72.53125 C-3.94370197 72.52114178 -3.94370197 72.52114178 -5.0703125 71.39453125 C-5.17681072 70.02518264 -5.21648715 68.65053483 -5.22802734 67.27709961 C-5.23828949 66.40206284 -5.24855164 65.52702606 -5.25912476 64.62547302 C-5.26642609 63.67141068 -5.27372742 62.71734833 -5.28125 61.734375 C-5.3093393 59.72329944 -5.33800387 57.71223185 -5.3671875 55.70117188 C-5.40831473 52.52384844 -5.44519046 49.34667045 -5.47167969 46.16918945 C-5.49943485 43.10726865 -5.54533091 40.04602974 -5.59375 36.984375 C-5.59700287 36.04448227 -5.60025574 35.10458954 -5.60360718 34.13621521 C-5.71267493 28.23001405 -6.54717877 23.76378684 -9.0703125 18.39453125 C-12.23609604 15.51654621 -14.22081488 14.52038275 -18.4453125 13.89453125 C-23.63510227 14.61036432 -27.943431 16.01320454 -31.51885986 20.01637268 C-35.29206708 25.66132582 -35.79252701 30.29190955 -35.7421875 36.984375 C-35.76131195 38.46207115 -35.76131195 38.46207115 -35.78082275 39.96961975 C-35.81693619 43.09072185 -35.81983063 46.21073919 -35.8203125 49.33203125 C-35.8419106 52.47791438 -35.87029632 55.62363453 -35.90264893 58.76942444 C-35.92044964 60.72138534 -35.93069857 62.67343209 -35.93280029 64.62547302 C-35.93660706 65.5005098 -35.94041382 66.37554657 -35.94433594 67.27709961 C-35.94479919 68.05016953 -35.94526245 68.82323944 -35.94573975 69.61973572 C-36.0703125 71.39453125 -36.0703125 71.39453125 -37.0703125 72.39453125 C-39.7476263 72.49434339 -42.39335425 72.53333 -45.0703125 72.51953125 C-46.19566406 72.52533203 -46.19566406 72.52533203 -47.34375 72.53125 C-52.94370197 72.52114178 -52.94370197 72.52114178 -54.0703125 71.39453125 C-54.16467779 69.15523239 -54.18773577 66.91291375 -54.18383789 64.67163086 C-54.18398392 63.96922775 -54.18412994 63.26682465 -54.1842804 62.5431366 C-54.18358122 60.21101847 -54.17578867 57.87897925 -54.16796875 55.546875 C-54.16610458 53.93404687 -54.16468068 52.32121818 -54.16368103 50.70838928 C-54.15985573 46.45537768 -54.15002535 42.20240001 -54.13897705 37.94940186 C-54.12876319 33.61275695 -54.12418346 29.27610658 -54.11914062 24.93945312 C-54.10840309 16.42446183 -54.0908062 7.90950466 -54.0703125 -0.60546875 C-48.4603125 -0.60546875 -42.8503125 -0.60546875 -37.0703125 -0.60546875 C-36.4103125 1.70453125 -35.7503125 4.01453125 -35.0703125 6.39453125 C-34.55082031 5.91242187 -34.03132812 5.4303125 -33.49609375 4.93359375 C-32.79871094 4.30195312 -32.10132813 3.6703125 -31.3828125 3.01953125 C-30.69832031 2.39304687 -30.01382813 1.7665625 -29.30859375 1.12109375 C-21.60102368 -4.82436169 -8.42906493 -4.5008026 0 0 Z " fill="#22734F" transform="translate(636.0703125,545.60546875)"/>
<path d="M0 0 C1.31238144 0.00222061 2.62476288 0.00444122 3.97691345 0.00672913 C4.6988237 0.0065831 5.42073395 0.00643707 6.16452026 0.00628662 C8.56156879 0.00698583 10.95854054 0.01477857 13.35557556 0.02259827 C15.0132442 0.02446242 16.67091338 0.02588633 18.32858276 0.02688599 C22.69996145 0.03071139 27.07130712 0.04054186 31.44267273 0.05158997 C35.89996392 0.0618036 40.35726043 0.0663835 44.81455994 0.07142639 C53.56652824 0.08216412 62.31846968 0.0992408 71.07041931 0.12025452 C72.56383635 3.10708858 72.2021711 5.86425226 72.19541931 9.18275452 C72.1992865 11.08734436 72.1992865 11.08734436 72.20323181 13.03041077 C72.07041931 16.12025452 72.07041931 16.12025452 71.07041931 17.12025452 C69.14563119 17.27831982 67.21542721 17.37138952 65.28526306 17.43666077 C63.53052673 17.49950256 63.53052673 17.49950256 61.74034119 17.56361389 C60.50864197 17.6029303 59.27694275 17.6422467 58.00791931 17.68275452 C56.1545697 17.74752991 56.1545697 17.74752991 54.26377869 17.81361389 C51.19944596 17.9200965 48.13502858 18.02210876 45.07041931 18.12025452 C45.06011185 19.15786423 45.04980438 20.19547394 45.03918457 21.26452637 C44.94162327 31.02107925 44.83890604 40.77756588 44.73108006 50.53401089 C44.67580692 55.5504475 44.62238005 60.56688989 44.57310486 65.58338928 C44.52552588 70.42040318 44.47318569 75.25734383 44.41747856 80.09427071 C44.3970256 81.94391632 44.3783175 83.79358204 44.36134529 85.64326286 C44.33736611 88.22477906 44.30730313 90.80615549 44.27574158 93.3875885 C44.26998611 94.16010452 44.26423065 94.93262054 44.25830078 95.72854614 C44.18447147 101.00620236 44.18447147 101.00620236 43.07041931 102.12025452 C40.43295176 102.24711258 37.83332765 102.30546068 35.19541931 102.30775452 C34.46194275 102.32000061 33.72846619 102.3322467 32.97276306 102.34486389 C29.13478417 102.35535017 27.33694857 102.29794069 24.07041931 100.12025452 C23.78406001 97.42821303 23.69206787 94.96705895 23.72984314 92.27406311 C23.72918602 91.0593055 23.72918602 91.0593055 23.72851562 89.82000732 C23.73061017 87.13599257 23.75397214 84.452598 23.77745056 81.76869202 C23.78304416 79.91067344 23.78731537 78.05265044 23.79031372 76.19462585 C23.80178112 71.29871963 23.83126451 66.4030794 23.86442566 61.50727844 C23.8950858 56.51372374 23.90881037 51.52012616 23.92393494 46.52650452 C23.95613246 36.72430416 24.0073516 26.92230144 24.07041931 17.12025452 C22.8514093 17.12810974 22.8514093 17.12810974 21.60777283 17.13612366 C17.94949609 17.15682446 14.29123164 17.16989254 10.63291931 17.18275452 C9.35352478 17.19113342 8.07413025 17.19951233 6.75596619 17.20814514 C4.93355408 17.21297913 4.93355408 17.21297913 3.07432556 17.21791077 C1.94841003 17.22314758 0.82249451 17.2283844 -0.33753967 17.23377991 C-2.92958069 17.12025452 -2.92958069 17.12025452 -3.92958069 16.12025452 C-4.02933101 13.60889347 -4.06840252 11.13122037 -4.05458069 8.62025452 C-4.05844788 7.91771545 -4.06231506 7.21517639 -4.06629944 6.49134827 C-4.05411267 0.16641472 -4.05411267 0.16641472 0 0 Z " fill="#257451" transform="translate(812.9295806884766,384.87974548339844)"/>
<path d="M0 0 C1.58206422 0.00574487 3.16410406 0.01876032 4.74609375 0.03515625 C7.53046875 0.05578125 10.31484375 0.07640625 13.18359375 0.09765625 C13.51359375 6.36765625 13.84359375 12.63765625 14.18359375 19.09765625 C19.73301725 19.38684884 19.73301725 19.38684884 25.28295898 19.66577148 C31.07248264 19.98654514 31.07248264 19.98654514 32.18359375 21.09765625 C32.28252315 23.26246422 32.31330475 25.4305941 32.30859375 27.59765625 C32.31246094 29.3765625 32.31246094 29.3765625 32.31640625 31.19140625 C32.18359375 34.09765625 32.18359375 34.09765625 31.18359375 35.09765625 C28.32481466 35.33466864 25.48476078 35.51984807 22.62109375 35.66015625 C21.81478516 35.70333984 21.00847656 35.74652344 20.17773438 35.79101562 C18.1799057 35.89740887 16.18177305 35.99806513 14.18359375 36.09765625 C14.1339906 41.25714736 14.09777816 46.41649825 14.07373047 51.57617188 C14.06370062 53.32977722 14.05007346 55.08336595 14.03271484 56.83691406 C14.00833345 59.3639741 13.99708035 61.89081215 13.98828125 64.41796875 C13.97795868 65.19633087 13.96763611 65.97469299 13.95700073 66.77664185 C13.95684967 67.51695648 13.95669861 68.25727112 13.95654297 69.02001953 C13.94988113 69.98598557 13.94988113 69.98598557 13.94308472 70.97146606 C14.1892996 73.80674485 14.1892996 73.80674485 16.18359375 79.09765625 C21.46359375 79.42765625 26.74359375 79.75765625 32.18359375 80.09765625 C32.37890625 90.05859375 32.37890625 90.05859375 32.18359375 93.09765625 C28.73544131 96.54580869 24.1940314 96.29098293 19.49609375 96.41015625 C12.61959729 96.3255745 6.62634305 95.04756385 1.30078125 90.484375 C-4.55768037 84.10233106 -5.1245283 77.44779424 -5.23046875 69.10546875 C-5.2498349 68.1595285 -5.26920105 67.21358826 -5.28915405 66.23898315 C-5.34867674 63.23363103 -5.39522571 60.22824004 -5.44140625 57.22265625 C-5.47961117 55.17836921 -5.51866436 53.13409783 -5.55859375 51.08984375 C-5.65435579 46.09257595 -5.73848739 41.09523283 -5.81640625 36.09765625 C-6.99009766 36.00677734 -6.99009766 36.00677734 -8.1875 35.9140625 C-9.19941406 35.83027344 -10.21132813 35.74648438 -11.25390625 35.66015625 C-12.26324219 35.57894531 -13.27257812 35.49773438 -14.3125 35.4140625 C-16.81640625 35.09765625 -16.81640625 35.09765625 -17.81640625 34.09765625 C-17.91540824 32.12052818 -17.94611398 30.13975587 -17.94140625 28.16015625 C-17.94398438 27.07863281 -17.9465625 25.99710938 -17.94921875 24.8828125 C-17.81640625 22.09765625 -17.81640625 22.09765625 -16.81640625 20.09765625 C-14.3125 19.68359375 -14.3125 19.68359375 -11.25390625 19.47265625 C-10.24199219 19.39789062 -9.23007812 19.323125 -8.1875 19.24609375 C-7.40503906 19.19710937 -6.62257813 19.148125 -5.81640625 19.09765625 C-5.72552734 17.16599609 -5.72552734 17.16599609 -5.6328125 15.1953125 C-5.54842378 13.51691466 -5.46377495 11.83852989 -5.37890625 10.16015625 C-5.31993164 8.88495117 -5.31993164 8.88495117 -5.25976562 7.58398438 C-5.21787109 6.77509766 -5.17597656 5.96621094 -5.1328125 5.1328125 C-5.09615479 4.38394775 -5.05949707 3.63508301 -5.02172852 2.86352539 C-4.62166107 -0.57724494 -3.64170534 0.09318591 0 0 Z " fill="#247451" transform="translate(674.81640625,523.90234375)"/>
<path d="M0 0 C1.03447266 0.01160156 1.03447266 0.01160156 2.08984375 0.0234375 C2.77949219 0.01570312 3.46914063 0.00796875 4.1796875 0 C9.33651082 0.02010457 9.33651082 0.02010457 11.58984375 2.2734375 C11.80738549 4.98218375 11.90125476 7.59176021 11.90869141 10.30322266 C11.91873703 11.13256821 11.92878265 11.96191376 11.93913269 12.81639099 C11.97009037 15.56508676 11.98703459 18.3136846 12.00390625 21.0625 C12.02260779 22.9653712 12.04218043 24.86823402 12.06259155 26.77108765 C12.11402592 31.78518748 12.15359099 36.79931424 12.19073486 41.8135376 C12.23070382 46.92784343 12.28182849 52.04203619 12.33203125 57.15625 C12.4289243 67.1952332 12.51328611 77.23428008 12.58984375 87.2734375 C14.56984375 88.2634375 16.54984375 89.2534375 18.58984375 90.2734375 C18.61670313 92.41920387 18.63617463 94.56506395 18.65234375 96.7109375 C18.66394531 97.90589844 18.67554688 99.10085938 18.6875 100.33203125 C18.58984375 103.2734375 18.58984375 103.2734375 17.58984375 104.2734375 C15.36439213 104.42671364 13.13289216 104.49546824 10.90234375 104.5234375 C9.68160156 104.54921875 8.46085937 104.575 7.203125 104.6015625 C2.66112354 104.18909966 -0.42868254 102.61800895 -4.16015625 100.0859375 C-7.85380058 94.73015322 -7.70099263 87.58003251 -7.66894531 81.31884766 C-7.67244995 80.46257782 -7.67595459 79.60630798 -7.67956543 78.72409058 C-7.68830243 75.92014237 -7.68256534 73.11645034 -7.67578125 70.3125 C-7.67712946 68.35574292 -7.6790713 66.39898616 -7.68157959 64.44223022 C-7.68451931 60.35549712 -7.68026754 56.26885178 -7.67089844 52.18212891 C-7.65945914 46.9361918 -7.66609885 41.69045835 -7.67804337 36.44452858 C-7.68525446 32.41090343 -7.68297829 28.37732698 -7.67778778 24.34370041 C-7.67645155 22.40833894 -7.67809808 20.47297308 -7.68274689 18.53761673 C-7.68780471 15.84217762 -7.68011455 13.14707414 -7.66894531 10.45166016 C-7.67299377 9.64855408 -7.67704224 8.845448 -7.68121338 8.01800537 C-7.63082953 1.48169124 -6.65403066 0.02594164 0 0 Z " fill="#267552" transform="translate(474.41015625,514.7265625)"/>
<path d="M0 0 C1.17046875 0.01804687 2.3409375 0.03609375 3.546875 0.0546875 C4.88492188 0.08949219 4.88492188 0.08949219 6.25 0.125 C7.74341703 3.11183407 7.38175178 5.86899774 7.375 9.1875 C7.37886719 11.09208984 7.37886719 11.09208984 7.3828125 13.03515625 C7.25 16.125 7.25 16.125 6.25 17.125 C4.18985399 17.28415291 2.12646146 17.40204929 0.0625 17.5 C-6.32697312 17.96138427 -10.42476131 18.73517135 -15 23.4375 C-18.86077151 29.36654197 -19.06371158 35.00925726 -19.12890625 41.86328125 C-19.14590073 42.78465378 -19.1628952 43.70602631 -19.18040466 44.65531921 C-19.23331551 47.58264422 -19.27376123 50.50995586 -19.3125 53.4375 C-19.35640284 56.38282867 -19.40301235 59.3280472 -19.45530701 62.27323914 C-19.48731843 64.10275457 -19.51419147 65.93236824 -19.53553772 67.76203918 C-19.63819663 74.01319663 -19.63819663 74.01319663 -20.75 75.125 C-23.24238569 75.25153198 -25.69470441 75.31019825 -28.1875 75.3125 C-28.88166016 75.32474609 -29.57582031 75.33699219 -30.29101562 75.34960938 C-32.11220901 75.35489842 -33.9328692 75.24669207 -35.75 75.125 C-37.75 73.125 -37.75 73.125 -37.99723816 70.19578552 C-37.99581314 68.94193558 -37.99438812 67.68808563 -37.99291992 66.39624023 C-37.99576744 65.35945633 -37.99576744 65.35945633 -37.99867249 64.30172729 C-38.00238366 62.01223484 -37.99167237 59.7230581 -37.98046875 57.43359375 C-37.97927714 55.84701067 -37.97882375 54.26042689 -37.9790802 52.67384338 C-37.9775148 49.34737742 -37.9692202 46.02101899 -37.95581055 42.69458008 C-37.93880679 38.42144345 -37.93499656 34.14842494 -37.93575573 29.87525845 C-37.9354844 26.59913496 -37.93000934 23.32303753 -37.92275429 20.04692268 C-37.91956275 18.47078715 -37.91759909 16.89464865 -37.91686058 15.31851006 C-37.91470291 13.12041014 -37.90597165 10.92243792 -37.89526367 8.72436523 C-37.88954597 6.84478371 -37.88954597 6.84478371 -37.88371277 4.92723083 C-37.75 2.125 -37.75 2.125 -36.75 1.125 C-34.0726862 1.02518786 -31.42695825 0.98620125 -28.75 1 C-27.99976563 0.99613281 -27.24953125 0.99226563 -26.4765625 0.98828125 C-20.87661053 0.99838947 -20.87661053 0.99838947 -19.75 2.125 C-19.38239269 4.45317964 -19.04758419 6.7868385 -18.75 9.125 C-18.21890625 8.64289063 -17.6878125 8.16078125 -17.140625 7.6640625 C-16.43421875 7.03242188 -15.7278125 6.40078125 -15 5.75 C-14.30390625 5.12351562 -13.6078125 4.49703125 -12.890625 3.8515625 C-8.52318255 0.32891731 -5.63791548 -0.11275831 0 0 Z " fill="#22734F" transform="translate(721.75,411.875)"/>
<path d="M0 0 C5.50836459 3.06260743 8.87902873 7.34461385 10.8125 13.375 C11.49688759 21.31211837 11.80087942 29.29884297 7.8125 36.375 C3.14211999 41.62328056 -1.56108613 43.97206513 -8.5625 44.75 C-14.18105893 44.16876977 -18.27678441 42.62898268 -21.9921875 38.24609375 C-27.20080234 30.68238751 -27.83161952 24.49807467 -27.1875 15.375 C-25.66515952 8.05098399 -21.28133663 3.43755775 -15.1875 -0.625 C-9.81313291 -2.4164557 -5.11955434 -2.33676628 0 0 Z " fill="#F6F5F4" transform="translate(925.1875,428.625)"/>
<path d="M0 0 C8.23688999 0.00403967 14.88551868 0.25074954 21.4375 5.6875 C24.86609278 9.94726679 25.91799273 12.52190038 25.75 18.16015625 C25.1879028 22.85893751 23.50537298 26.24462702 20.1875 29.5625 C13.81687728 33.56265845 7.91573164 33.50342752 0.625 33.375 C-0.34953125 33.36597656 -1.3240625 33.35695313 -2.328125 33.34765625 C-4.71900728 33.32421623 -7.10937261 33.29140442 -9.5 33.25 C-9.52465392 28.71102295 -9.54283789 24.17208457 -9.55493164 19.63305664 C-9.5599714 18.08780234 -9.5668032 16.54255284 -9.57543945 14.99731445 C-9.58752076 12.78074971 -9.59323173 10.56424782 -9.59765625 8.34765625 C-9.60281754 7.6528566 -9.60797882 6.95805695 -9.61329651 6.24220276 C-9.61349277 4.5777067 -9.56189129 2.91334501 -9.5 1.25 C-7.38908457 -0.86091543 -2.9068863 0.01006639 0 0 Z " fill="#F7F6F4" transform="translate(410.5,532.75)"/>
<path d="M0 0 C3.39696633 2.3161134 5.47768579 4.43406705 7.75 7.875 C8.245 11.835 8.245 11.835 8.75 15.875 C-2.14 15.875 -13.03 15.875 -24.25 15.875 C-25.25 13.875 -25.25 13.875 -24.25 10.125 C-22.4093393 5.44665406 -19.41020926 2.60750108 -15.25 -0.125 C-10.0828841 -1.84737197 -5.14400242 -1.78061622 0 0 Z " fill="#F7F6F5" transform="translate(643.25,427.125)"/>
<path d="M0 0 C3.83084349 2.61193874 6.65161815 5.67823629 8.75 9.875 C8.75 11.855 8.75 13.835 8.75 15.875 C-2.14 15.875 -13.03 15.875 -24.25 15.875 C-23.07649842 6.48698738 -23.07649842 6.48698738 -18.25 1.875 C-12.46090076 -2.07211312 -6.4927354 -2.24748533 0 0 Z " fill="#F7F6F5" transform="translate(778.25,427.125)"/>
<path d="M0 0 C1.40185547 0.00966797 1.40185547 0.00966797 2.83203125 0.01953125 C4.28416016 0.04466797 4.28416016 0.04466797 5.765625 0.0703125 C6.74917969 0.07933594 7.73273437 0.08835937 8.74609375 0.09765625 C11.16951907 0.12118465 13.59244722 0.15405882 16.015625 0.1953125 C16.08867853 1.77795032 16.14053874 3.36157466 16.18359375 4.9453125 C16.21477295 5.82703125 16.24595215 6.70875 16.27807617 7.6171875 C15.83166617 12.00238716 13.31473423 14.4816567 10.015625 17.1953125 C5.61707277 20.00549864 0.07137235 19.97063478 -4.984375 19.1953125 C-7.91464776 17.87727816 -8.83599932 16.78438062 -10.984375 14.1953125 C-12.18673689 10.23459099 -12.41153214 8.20700047 -10.796875 4.3828125 C-7.67240492 0.61190033 -4.79238217 -0.05844369 0 0 Z " fill="#F7F6F5" transform="translate(531.984375,585.8046875)"/>
<path d="M0 0 C0.66 0 1.32 0 2 0 C2 0.66 2 1.32 2 2 C-0.91020191 4.75147647 -2.90459982 5.37180579 -6.86035156 5.34057617 C-7.82104553 5.34034958 -8.7817395 5.34012299 -9.77154541 5.33988953 C-10.80084167 5.32440567 -11.83013794 5.30892181 -12.890625 5.29296875 C-14.48025055 5.28660149 -14.48025055 5.28660149 -16.10198975 5.28010559 C-19.48491887 5.2633203 -22.86725109 5.22566755 -26.25 5.1875 C-28.54426223 5.17245301 -30.8385338 5.15876463 -33.1328125 5.14648438 C-38.7554118 5.11341728 -44.37766325 5.06321903 -50 5 C-50 5.99 -50 6.98 -50 8 C-50.66 8 -51.32 8 -52 8 C-52 6.35 -52 4.7 -52 3 C-51.37803741 2.99191315 -50.75607483 2.98382629 -50.11526489 2.97549438 C-43.65914984 2.88963493 -37.20334846 2.79014024 -30.74755859 2.68261719 C-28.33615372 2.64426353 -25.92469038 2.6094221 -23.51318359 2.578125 C-20.05284687 2.53261297 -16.59291492 2.47459596 -13.1328125 2.4140625 C-12.04944611 2.40251129 -10.96607971 2.39096008 -9.84988403 2.37905884 C-8.8489975 2.35918915 -7.84811096 2.33931946 -6.81689453 2.31884766 C-5.93309113 2.30552399 -5.04928772 2.29220032 -4.13870239 2.2784729 C-1.7867175 2.19330996 -1.7867175 2.19330996 0 0 Z " fill="#FDFDFD" transform="translate(806,453)"/>
<path d="M0 0 C0 3.47726436 -0.48765754 3.96286079 -2.6328125 6.546875 C-3.19226563 7.2275 -3.75171875 7.908125 -4.328125 8.609375 C-4.92109375 9.31578125 -5.5140625 10.0221875 -6.125 10.75 C-6.97964844 11.78640625 -6.97964844 11.78640625 -7.8515625 12.84375 C-8.9932708 14.22417912 -10.14071033 15.59988896 -11.29394531 16.97070312 C-12.43795933 18.33147081 -13.57266896 19.70011168 -14.69824219 21.07617188 C-15.22836914 21.71619141 -15.75849609 22.35621094 -16.3046875 23.015625 C-17.01214111 23.87849121 -17.01214111 23.87849121 -17.73388672 24.75878906 C-19 26 -19 26 -21 26 C-19.76376141 16.31613101 -9.88721241 8.30308986 -3 2 C-2.01 1.34 -1.02 0.68 0 0 Z " fill="#F2F5F3" transform="translate(258,450)"/>
<path d="M0 0 C0.33 0 0.66 0 1 0 C1.04934154 6.08722746 1.08569167 12.1743392 1.10986328 18.26171875 C1.11993712 20.33367947 1.13359666 22.40562593 1.15087891 24.47753906 C1.17506664 27.45120764 1.18646908 30.4246887 1.1953125 33.3984375 C1.20563507 34.32868744 1.21595764 35.25893738 1.22659302 36.21737671 C1.22674408 37.07811798 1.22689514 37.93885925 1.22705078 38.82568359 C1.231492 39.58513275 1.23593323 40.34458191 1.24050903 41.12704468 C1 43 1 43 -1 45 C-4.625 45.125 -4.625 45.125 -8 45 C-8 44.67 -8 44.34 -8 44 C-6.02 43.34 -4.04 42.68 -2 42 C-1.96241577 40.14483765 -1.96241577 40.14483765 -1.92407227 38.25219727 C-1.83017747 33.68063287 -1.72991371 29.10922682 -1.62768555 24.5378418 C-1.58426856 22.55610854 -1.54259863 20.57433622 -1.50268555 18.5925293 C-1.44514617 15.7503683 -1.38140555 12.90840517 -1.31640625 10.06640625 C-1.29133751 8.72891075 -1.29133751 8.72891075 -1.26576233 7.36439514 C-1.11387171 1.11387171 -1.11387171 1.11387171 0 0 Z " fill="#FDFDFD" transform="translate(601,575)"/>
<path d="M0 0 C3.63 0 7.26 0 11 0 C10.67 0.66 10.34 1.32 10 2 C7.03 2 4.06 2 1 2 C1.33 4.97 1.66 7.94 2 11 C5.3 11.99 8.6 12.98 12 14 C12 14.33 12 14.66 12 15 C10.02090602 15.02686553 8.04171029 15.04633375 6.0625 15.0625 C4.96035156 15.07410156 3.85820313 15.08570313 2.72265625 15.09765625 C0 15 0 15 -1 14 C-1.09900199 12.02287193 -1.12970773 10.04209962 -1.125 8.0625 C-1.12757813 6.98097656 -1.13015625 5.89945313 -1.1328125 4.78515625 C-1 2 -1 2 0 0 Z " fill="#12623A" transform="translate(658,544)"/>
<path d="M0 0 C3.08603789 0.10286793 5.76424114 0.40117967 8.75 1.125 C8.75 1.455 8.75 1.785 8.75 2.125 C5.12 2.125 1.49 2.125 -2.25 2.125 C-1.92 11.695 -1.59 21.265 -1.25 31.125 C-4.73112069 24.16275863 -4.34161741 16.75769024 -4.375 9.125 C-4.37967285 8.35841064 -4.3843457 7.59182129 -4.38916016 6.80200195 C-4.36981708 0.16806989 -4.36981708 0.16806989 0 0 Z " fill="#246C47" transform="translate(164.25,391.875)"/>
<path d="M0 0 C0 3.94720688 -1.52509109 5.01555103 -4 8 C-4.45439453 8.99 -4.45439453 8.99 -4.91796875 10 C-6.16294516 12.30118383 -7.27187849 13.12625621 -9.4375 14.5625 C-15.2518534 18.70643143 -20.05100374 23.88725019 -25 29 C-25 26 -25 26 -23.45874023 24.1340332 C-22.74919189 23.44656006 -22.03964355 22.75908691 -21.30859375 22.05078125 C-20.52806641 21.28443359 -19.74753906 20.51808594 -18.94335938 19.72851562 C-18.11642578 18.93123047 -17.28949219 18.13394531 -16.4375 17.3125 C-10.70280788 11.73492273 -5.15934579 6.11917523 0 0 Z " fill="#0C582E" transform="translate(283,515)"/>
<path d="M0 0 C1.134375 0.020625 2.26875 0.04125 3.4375 0.0625 C3.1075 0.7225 2.7775 1.3825 2.4375 2.0625 C0.7875 2.0625 -0.8625 2.0625 -2.5625 2.0625 C-2.5625 8.3325 -2.5625 14.6025 -2.5625 21.0625 C-3.2225 20.7325 -3.8825 20.4025 -4.5625 20.0625 C-4.59138514 16.91668577 -4.60925923 13.77090531 -4.625 10.625 C-4.63337891 9.72716797 -4.64175781 8.82933594 -4.65039062 7.90429688 C-4.65361328 7.05029297 -4.65683594 6.19628906 -4.66015625 5.31640625 C-4.66801147 4.13026733 -4.66801147 4.13026733 -4.67602539 2.92016602 C-4.46636647 -0.51057527 -3.54606445 0.06221166 0 0 Z " fill="#FCFBFB" transform="translate(405.5625,532.9375)"/>
<path d="M0 0 C-0.33 0.66 -0.66 1.32 -1 2 C-3.14453125 2.34375 -3.14453125 2.34375 -5.8125 2.5 C-9.39838736 2.71186927 -11.87501406 3.19348132 -15 5 C-15 4.34 -15 3.68 -15 3 C-16.65 3.33 -18.3 3.66 -20 4 C-19 2 -19 2 -16.1875 0.875 C-10.89869835 -0.54124814 -5.42688321 -0.16040049 0 0 Z " fill="#16663E" transform="translate(539,543)"/>
<path d="M0 0 C1.53192402 1.53192402 3.06083656 3.06327002 4.5625 4.625 C5.972776 6.10933511 5.972776 6.10933511 8 7 C8.33 6.01 8.66 5.02 9 4 C8.67 7.3 8.34 10.6 8 14 C7.34 14 6.68 14 6 14 C4.99515796 12.04414675 3.99626195 10.08523763 3 8.125 C2.1646875 6.48917969 2.1646875 6.48917969 1.3125 4.8203125 C0 2 0 2 0 0 Z " fill="#125E34" transform="translate(214,450)"/>
<path d="M0 0 C0.89506817 2.96986552 1.03315169 5.25639788 0.66015625 8.328125 C0.56669922 9.12734375 0.47324219 9.9265625 0.37695312 10.75 C0.27318359 11.575 0.16941406 12.4 0.0625 13.25 C-0.03740234 14.09046875 -0.13730469 14.9309375 -0.24023438 15.796875 C-0.48704258 17.86536277 -0.74266284 19.93279572 -1 22 C-1.33 22 -1.66 22 -2 22 C-2.05807043 18.89591193 -2.09361914 15.7919636 -2.125 12.6875 C-2.14175781 11.80642578 -2.15851563 10.92535156 -2.17578125 10.01757812 C-2.18222656 9.17001953 -2.18867187 8.32246094 -2.1953125 7.44921875 C-2.20578613 6.66893311 -2.21625977 5.88864746 -2.22705078 5.0847168 C-2 3 -2 3 0 0 Z " fill="#E6ECE8" transform="translate(128,431)"/>
<path d="M0 0 C1.8871875 0.0309375 1.8871875 0.0309375 3.8125 0.0625 C3.8125 0.7225 3.8125 1.3825 3.8125 2.0625 C2.74 2.18625 1.6675 2.31 0.5625 2.4375 C-3.03433029 2.8480624 -3.03433029 2.8480624 -5.4375 4.1875 C-6.015 4.47625 -6.5925 4.765 -7.1875 5.0625 C-8.1775 4.7325 -9.1675 4.4025 -10.1875 4.0625 C-7.08842497 0.66827497 -4.52992189 -0.07426101 0 0 Z " fill="#E8EDEA" transform="translate(917.1875,426.9375)"/>
<path d="M0 0 C0.33 0.66 0.66 1.32 1 2 C-1.64 5.63 -4.28 9.26 -7 13 C-7 10.66666667 -7 8.33333333 -7 6 C-4.625 4.4375 -4.625 4.4375 -2 3 C-1.34 2.01 -0.68 1.02 0 0 Z " fill="#1A643D" transform="translate(233,613)"/>
<path d="M0 0 C4.55744786 3.90638388 7.74745236 8.96942836 8.25 15 C8.1675 15.66 8.085 16.32 8 17 C6.05193851 14.07790776 4.54304955 11.15039284 3 8 C2.443125 6.948125 2.443125 6.948125 1.875 5.875 C0.97022473 3.93619585 0.44740748 2.08790157 0 0 Z " fill="#16623A" transform="translate(215,415)"/>
<path d="M0 0 C0 3.94720688 -1.52509109 5.01555103 -4 8 C-4.350625 8.7425 -4.70125 9.485 -5.0625 10.25 C-6 12 -6 12 -9 13 C-8.4352699 9.09170915 -6.57868029 7.10079777 -3.9375 4.25 C-3.20402344 3.45078125 -2.47054688 2.6515625 -1.71484375 1.828125 C-1.14894531 1.22484375 -0.58304687 0.6215625 0 0 Z " fill="#16633A" transform="translate(283,515)"/>
<path d="M0 0 C0.66 0 1.32 0 2 0 C0.64844718 4.42326378 -1.19890438 6.40412982 -5 9 C-5.99 9.33 -6.98 9.66 -8 10 C-6.75976392 6.27929177 -5.04269852 5.37478909 -2 3 C-1.34 2.01 -0.68 1.02 0 0 Z " fill="#ECF1EE" transform="translate(433,555)"/>
<path d="M0 0 C1.9451 2.91765 2.45276317 4.62537285 3 8 C1.68 7.34 0.36 6.68 -1 6 C-1.33 7.32 -1.66 8.64 -2 10 C-3.39195915 5.82412255 -1.82323219 3.86525224 0 0 Z " fill="#ECF1EE" transform="translate(442,420)"/>
<path d="M0 0 C0.33 0.66 0.66 1.32 1 2 C-3.625 6.875 -3.625 6.875 -7 8 C-8.20882096 10.00016466 -8.20882096 10.00016466 -9 12 C-8.52379711 7.62346871 -7.33100111 5.93461995 -3.9375 3.1875 C-3.20402344 2.58292969 -2.47054688 1.97835937 -1.71484375 1.35546875 C-1.14894531 0.90816406 -0.58304688 0.46085938 0 0 Z " fill="#115C30" transform="translate(513,579)"/>
<path d="M0 0 C0 3.58912412 -0.66436554 4.10857029 -3 6.6875 C-3.556875 7.31011719 -4.11375 7.93273437 -4.6875 8.57421875 C-5.120625 9.04472656 -5.55375 9.51523437 -6 10 C-6 6.24633583 -4.88579937 4.21284338 -3 1 C-2.01 0.67 -1.02 0.34 0 0 Z " fill="#17653E" transform="translate(272,562)"/>
<path d="M0 0 C0.66 0 1.32 0 2 0 C1.875 1.75 1.875 1.75 1 4 C-2.0625 6.25 -2.0625 6.25 -5 8 C-3.63055898 5.05043472 -2.12169591 2.47531189 0 0 Z " fill="#EFF2F0" transform="translate(306,524)"/>
<path d="M0 0 C0.66 0.66 1.32 1.32 2 2 C-0.97 4.475 -0.97 4.475 -4 7 C-4 5.02 -4 3.04 -4 1 C-2.125 0.375 -2.125 0.375 0 0 Z " fill="#E6EDE8" transform="translate(706,415)"/>
<path d="M0 0 C0.66 0.33 1.32 0.66 2 1 C-0.64 2.98 -3.28 4.96 -6 7 C-6.33 5.68 -6.66 4.36 -7 3 C-4.69631264 1.93347808 -2.35981813 0.93578995 0 0 Z " fill="#17653E" transform="translate(711,429)"/>
<path d="M0 0 C0.33 0 0.66 0 1 0 C1.33 3.3 1.66 6.6 2 10 C0.68 9.01 -0.64 8.02 -2 7 C-1.34 4.69 -0.68 2.38 0 0 Z " fill="#E2E8E4" transform="translate(506,554)"/>
</svg>
